# File produced by Open Asset Import Library (http://www.assimp.sf.net)
# (assimp v4.1.3154142419)

mtllib back-wall.mtl

# 32 vertex positions
v  3.647000074386597 -1.846999883651733 0.5849999785423279
v  3.57699990272522 -1.846999883651733 0.5849999785423279
v  3.647000074386597 1.023000001907349 0.5849999785423279
v  3.57699990272522 1.023000001907349 0.5849999785423279
v  3.647000074386597 -1.846999883651733 1.935000061988831
v  3.57699990272522 -1.846999883651733 1.935000061988831
v  3.647000074386597 1.023000001907349 1.935000061988831
v  3.57699990272522 1.023000001907349 1.935000061988831
v  3.651999950408936 -1.836999893188477 0.5949999690055847
v  3.572000026702881 -1.836999893188477 0.5949999690055847
v  3.651999950408936 1.013000011444092 0.5949999690055847
v  3.572000026702881 1.013000011444092 0.5949999690055847
v  3.651999950408936 -1.836999893188477 1.925000071525574
v  3.572000026702881 -1.836999893188477 1.925000071525574
v  3.651999950408936 1.013000011444092 1.925000071525574
v  3.572000026702881 1.013000011444092 1.925000071525574
v  3.799999713897705 -3.156769514083862 9.04411251667625e-07
v  3.649999618530273 -3.156769275665283 1.744837049955095e-06
v  3.799999713897705 3.156379461288452 3.952455244871089e-06
v  3.649999618530273 3.156378507614136 3.362368488524226e-06
v  3.800000429153442 3.156379699707031 2.599997758865356
v  3.650000333786011 3.156379699707031 2.599998712539673
v  3.800000190734863 -3.156768321990967 2.599996328353882
v  3.650000333786011 -3.156769275665283 2.599995374679565
v  3.654999732971191 -3.164660692214966 0.005418113898485899
v  3.794999599456787 -3.164660453796387 0.005417186766862869
v  3.795000314712524 -3.164660453796387 2.594579458236694
v  3.65500020980835 -3.164660453796387 2.594578981399536
v  3.795004606246948 3.163201332092285 2.594891548156738
v  3.655004501342773 3.163204193115234 2.594890832901001
v  3.795003890991211 3.165337324142456 0.005729599855840206
v  3.655003786087036 3.165339231491089 0.005730408243834972

# 0 UV coordinates

# 34 vertex normals
vn 0 0 -1
vn 0 -1 0
vn 0 1 0
vn 0 0 1
vn -1 0 0
vn 1 0 0
vn -5.801514362246962e-06 4.796629582415335e-07 -1
vn 3.668985982585582e-06 2.546444193285424e-07 -1
vn 6.662467967544217e-06 -1.932758806333368e-07 1
vn -7.112799721653573e-06 -5.205752700021549e-07 1
vn -1 8.710689058943899e-09 2.498758533420187e-07
vn -1 8.711481314094272e-09 2.498738069789397e-07
vn 1 -8.711360521829192e-09 -2.498740343526151e-07
vn 1 -8.71050787054628e-09 -2.498760807156941e-07
vn -6.216458587005036e-06 -0.5658841133117676 -0.8244848251342773
vn -4.188346792943776e-06 -0.5659094452857971 -0.8244674205780029
vn 0.844700813293457 -0.5352388024330139 -2.047592317921954e-07
vn 0.8447345495223999 -0.5351855754852295 2.213269389983452e-08
vn -3.038631348317722e-06 -0.5659050345420837 0.8244704008102417
vn -3.444213234615745e-06 -0.5658999681472778 0.8244738578796387
vn -0.8447126746177673 -0.5352200269699097 2.863378085748991e-07
vn -0.8447237610816956 -0.5352025628089905 2.119171966796785e-07
vn 2.663759232746088e-06 -1 1.511465086423414e-07
vn -2.405961652129918e-08 -1 5.812670345051174e-09
vn 6.480515367002226e-06 0.5992270112037659 0.8005791306495667
vn 6.099879101384431e-06 0.5992218255996704 0.8005830049514771
vn 0.8066150546073914 0.5910768508911133 0.0004873885773122311
vn 0.8733589053153992 0.4870771765708923 -2.542435879604454e-07
vn 2.207062379966374e-06 0.5385672450065613 -0.8425825238227844
vn -2.730240282744489e-07 0.5385387539863586 -0.8426007032394409
vn -0.8731884360313416 0.4873825907707214 0.0004021148197352886
vn -0.8064237833023071 0.591338038444519 -9.89666801842759e-08
vn 1.883374716271646e-05 0.9999996423721313 0.0008246188517659903
vn 1.346801491308725e-05 0.9999996423721313 0.000824908958747983

# Mesh '' with 12 faces
usemtl $Material_0
f  1//1 2//1 3//1
f  3//1 2//1 4//1
f  2//2 1//2 5//2
f  2//2 5//2 6//2
f  3//3 4//3 7//3
f  7//3 4//3 8//3
f  7//4 8//4 5//4
f  5//4 8//4 6//4
f  4//5 2//5 8//5
f  8//5 2//5 6//5
f  1//6 3//6 7//6
f  1//6 7//6 5//6

# Mesh '' with 12 faces
usemtl $Material_1
f  9//1 10//1 11//1
f  11//1 10//1 12//1
f  10//2 9//2 13//2
f  10//2 13//2 14//2
f  11//3 12//3 15//3
f  15//3 12//3 16//3
f  15//4 16//4 13//4
f  13//4 16//4 14//4
f  12//5 10//5 16//5
f  16//5 10//5 14//5
f  9//6 11//6 15//6
f  9//6 15//6 13//6

# Mesh '' with 28 faces
usemtl $Material_2
f  17//7 18//7 19//7
f  19//8 18//8 20//8
f  21//9 22//9 23//9
f  23//10 22//10 24//10
f  20//11 18//11 22//11
f  22//12 18//12 24//12
f  17//13 19//13 21//13
f  17//14 21//14 23//14
f  18//15 17//15 25//15
f  17//16 26//16 25//16
f  26//17 17//17 27//17
f  17//18 23//18 27//18
f  24//19 28//19 23//19
f  28//20 27//20 23//20
f  28//21 24//21 25//21
f  24//22 18//22 25//22
f  25//23 26//23 28//23
f  26//24 27//24 28//24
f  29//25 30//25 21//25
f  30//26 22//26 21//26
f  29//27 21//27 31//27
f  21//28 19//28 31//28
f  31//29 19//29 32//29
f  19//30 20//30 32//30
f  32//31 20//31 30//31
f  20//32 22//32 30//32
f  30//33 29//33 32//33
f  29//34 31//34 32//34

