# File produced by Open Asset Import Library (http://www.assimp.sf.net)
# (assimp v4.1.3154142419)

mtllib pillar.mtl

# 16 vertex positions
v  -1.663000583648682 -2.560219049453735 1.09573795725737e-06
v  -2.102997064590454 -2.560219049453735 2.378429371674429e-06
v  -1.663000702857971 -2.138240814208984 5.913408131164033e-06
v  -2.102997303009033 -2.138241767883301 5.64635411137715e-06
v  -1.663002729415894 -2.138203620910645 2.599997282028198
v  -2.102999210357666 -2.138203620910645 2.599998474121094
v  -1.663002729415894 -2.560181379318237 2.599994421005249
v  -2.102999210357666 -2.560181856155396 2.599993467330933
v  -2.088330745697021 -2.568658351898193 0.005418424960225821
v  -1.677667140960693 -2.568658351898193 0.005417394917458296
v  -1.677669286727905 -2.568621158599854 2.594577550888062
v  -2.088332891464233 -2.568621397018433 2.594576835632324
v  -1.677657127380371 -2.130907535552979 2.594891309738159
v  -2.088320732116699 -2.130905151367188 2.594890356063843
v  -1.677654981613159 -2.128660440444946 0.005731673445552588
v  -2.088318586349487 -2.128658533096313 0.0057327039539814

# 0 UV coordinates

# 28 vertex normals
vn -2.824910097842803e-06 1.141691427619662e-05 -1
vn 6.972371124902565e-07 7.744372851448134e-06 -1
vn 2.824909188348101e-06 -6.520218903460773e-06 1
vn -1.871254653451615e-06 -1.141691336670192e-05 1
vn -1 -8.79470078984923e-08 -8.092373491308535e-07
vn -1 -8.794184935823068e-08 -8.092381449387176e-07
vn 1 8.794182093652125e-08 8.092381449387176e-07
vn 1 8.794841477310911e-08 8.092371217571781e-07
vn -2.472668029440683e-06 -0.5401037931442261 -0.8415983915328979
vn -1.987441464734729e-06 -0.5401211380958557 -0.8415873050689697
vn 0.4987444877624512 -0.8667490482330322 1.292677370656747e-05
vn 0.4987541735172272 -0.8667435050010681 1.299976065638475e-05
vn -9.599277746019652e-07 -0.5401514768600464 0.8415678143501282
vn -1.184901293527219e-06 -0.5401433706283569 0.8415729999542236
vn -0.4987525939941406 -0.8667443990707397 1.196259563585045e-05
vn -0.4987476170063019 -0.866747260093689 1.199977850774303e-05
vn 3.367351952832109e-09 -1 1.42850840347819e-05
vn 9.831380793912103e-07 -1 1.444048666598974e-05
vn 1.769178425092832e-06 0.5733608603477478 0.8193029165267944
vn 2.366339913351112e-06 0.5733842253684998 0.819286584854126
vn 0.44547438621521 0.8952943682670593 0.0007774169789627194
vn 0.5471968054771423 0.8370040059089661 -1.15308876047493e-05
vn 1.500582271773965e-07 0.5130071640014648 -0.8583843111991882
vn -3.959904404382542e-07 0.5129892826080322 -0.858394980430603
vn -0.5468738675117493 0.8372147083282471 0.0007260291022248566
vn -0.4452218115329742 0.8954203128814697 -1.347714987787185e-05
vn 5.997197149554268e-06 0.9999996423721313 0.0008677332079969347
vn 4.776231889991323e-06 0.9999996423721313 0.0008679268648847938

# Mesh '' with 28 faces
usemtl $Material_0
f  1//1 2//1 3//1
f  3//2 2//2 4//2
f  5//3 6//3 7//3
f  7//4 6//4 8//4
f  4//5 2//5 6//5
f  6//6 2//6 8//6
f  1//7 3//7 5//7
f  1//8 5//8 7//8
f  2//9 1//9 9//9
f  1//10 10//10 9//10
f  10//11 1//11 11//11
f  1//12 7//12 11//12
f  8//13 12//13 7//13
f  12//14 11//14 7//14
f  12//15 8//15 9//15
f  8//16 2//16 9//16
f  9//17 10//17 12//17
f  10//18 11//18 12//18
f  13//19 14//19 5//19
f  14//20 6//20 5//20
f  13//21 5//21 15//21
f  5//22 3//22 15//22
f  15//23 3//23 16//23
f  3//24 4//24 16//24
f  16//25 4//25 14//25
f  4//26 6//26 14//26
f  14//27 13//27 16//27
f  13//28 15//28 16//28

